<?xml version="1.0" encoding="UTF-8" standalone="no"?>
<svg width="40px" height="40px" viewBox="0 0 40 40" version="1.1" xmlns="http://www.w3.org/2000/svg" xmlns:xlink="http://www.w3.org/1999/xlink">
    <!-- Generator: Sketch 3.7.1 (28215) - http://www.bohemiancoding.com/sketch -->
    <title>Humanity</title>
    <desc>Created with Sketch.</desc>
    <defs>
        <polyline id="path-1" points="0 0.0304950495 39.9691089 0.0304950495 39.9691089 39.9762376 0 39.9762376"></polyline>
    </defs>
    <g id="Page-1" stroke="none" stroke-width="1" fill="none" fill-rule="evenodd">
        <g id="Humanity">
            <g id="icon-Humanity">
                <g id="Group-3">
                    <mask id="mask-2" fill="white">
                        <use xlink:href="#path-1"></use>
                    </mask>
                    <g id="Clip-2"></g>
                    <path d="M19.9845545,40 C31.0217822,40 39.9691089,31.0526733 39.9691089,20.0154455 C39.9691089,8.97782178 31.0217822,0.0304950495 19.9845545,0.0304950495 C8.94732673,0.0304950495 0,8.97782178 0,20.0154455 C0,31.0526733 8.94732673,40 19.9845545,40" id="Fill-1" fill="#FFFFFF" mask="url(#mask-2)"></path>
                </g>
                <polygon id="Fill-4" fill="#CCCCCC" points="18.280396 7.37821782 21.6891089 7.37821782 21.6891089 14.3916832 18.280396 14.3916832"></polygon>
                <polygon id="Fill-5" fill="#CCCCCC" points="18.280396 25.6392079 21.6891089 25.6392079 21.6891089 32.6526733 18.280396 32.6526733"></polygon>
                <polyline id="Fill-6" fill="#CCCCCC" points="22.7758416 14.8344554 25.1861386 17.2451485 30.1457426 12.2855446 27.7350495 9.87524752 22.7758416 14.8344554"></polyline>
                <polyline id="Fill-7" fill="#CCCCCC" points="17.2479208 25.2261386 14.8376238 22.8158416 9.87841584 27.7746535 12.2887129 30.1849505 17.2479208 25.2261386"></polyline>
                <polyline id="Fill-8" fill="#CCCCCC" points="14.8376238 17.2447525 17.2479208 14.8344554 12.2887129 9.87524752 9.87841584 12.2855446 14.8376238 17.2447525"></polyline>
                <polyline id="Fill-9" fill="#CCCCCC" points="25.1861386 22.8158416 22.7758416 25.2261386 27.7350495 30.1849505 30.1457426 27.7746535 25.1861386 22.8158416"></polyline>
                <polygon id="Fill-10" fill="#CCCCCC" points="7.34772277 18.3108911 14.3611881 18.3108911 14.3611881 21.719604 7.34772277 21.719604"></polygon>
                <polygon id="Fill-11" fill="#CCCCCC" points="25.6083168 18.3108911 32.6217822 18.3108911 32.6217822 21.719604 25.6083168 21.719604"></polygon>
            </g>
        </g>
    </g>
</svg>