<?xml version="1.0" encoding="UTF-8" standalone="no"?>
<svg width="120px" height="120px" viewBox="0 0 120 120" version="1.1" xmlns="http://www.w3.org/2000/svg" xmlns:xlink="http://www.w3.org/1999/xlink">
    <!-- Generator: Sketch 3.8.1 (29687) - http://www.bohemiancoding.com/sketch -->
    <title>Artboard 38 Copy</title>
    <desc>Created with Sketch.</desc>
    <defs></defs>
    <g id="Page-1" stroke="none" stroke-width="1" fill="none" fill-rule="evenodd">
        <g id="Artboard-38-Copy">
            <path d="M60,119 C92.5848002,119 119,92.5848002 119,60 C119,27.4151998 92.5848002,1 60,1 C27.4151998,1 1,27.4151998 1,60 C1,92.5848002 27.4151998,119 60,119 Z" id="Oval-8-Copy-3" fill="#EE3224"></path>
            <polygon id="Shape" fill="#FFFFFF" points="25.0969325 33.8624404 31.2661323 35.5687006 31.8888681 26.4406112 36.2927552 31.7240231 41.0106943 23.5398794 41.866956 32.505127 48.6069969 28.7186073 46.8246842 37.1649084 55.4803534 35.6501215 51.5837812 44.0150017 55.4338271 44.5223166 50.7328879 51.7804093 61.3873957 41.9767947 54.7815651 41.7316373 60.6939759 31.4860235 49.2064695 35.073912 53.6980407 22.6898809 44.2326361 28.6309232 42.9916382 14.75 35.6753878 28.3633974 29.7862402 20.3474639 29.6985561 32.8138107 20.3843618 30.3085519 26.7047718 41.3594274"></polygon>
            <path d="M41.0223259,45.1450524 C41.4070621,48.0225211 39.3974866,50.6673586 36.5370179,51.0520947 C33.6532861,51.4484625 31.0030802,49.4326239 30.6192387,46.5551552 C30.2282394,43.6776865 32.244078,41.0444806 35.1278098,40.654376 C37.9873838,40.2642714 40.6322213,42.2675837 41.0223259,45.1450524 Z M52.6206013,80.6042015 L55.3036816,79.3000488 L45.0772662,59.900132 C47.8500508,63.5989676 52.7317266,66.8611725 55.9241421,68.7419061 C55.2137222,67.1519615 55.2074591,65.2882279 56.2265626,63.7322832 C56.2730888,63.668757 56.4833516,63.4468626 56.657825,63.2607577 C53.1450943,60.9129723 48.9335753,57.2606629 46.5222637,53.6844059 C44.7981088,51.1156209 40.4523795,51.598778 38.3900147,52.0121457 C37.0389644,52.2743031 34.3708638,53.4097222 33.2291815,54.1854577 C30.9923433,55.6993498 28.4879793,54.5809307 26.4077197,52.8746705 C22.6677262,49.7985706 22.3357794,44.2127382 22.3295163,44.0955279 C22.2713585,42.6335304 21.0303607,41.4918482 19.5629948,41.5562692 C18.0947342,41.5795323 16.953052,42.8491616 17.0112098,44.3227907 C17.0228413,44.649369 17.3959459,52.3208294 22.9817783,56.9519792 C25.6731421,59.183449 27.4205601,59.7301323 31.5676581,60.6329202 C31.8562889,61.1832188 33.7835716,63.0899281 33.7835716,63.0899281 L34.8299104,86.8794761 L38.3695233,85.8327636 L38.9215822,90.5980779 L43.0160153,101.729901 C43.0741731,103.127478 44.2221185,104.222634 45.7127475,104.222634 C47.1461134,104.164476 47.2645325,102.953004 47.2063747,101.525007 L43.8976349,91.0805196 L44.0662364,84.0752238 L47.6600342,82.8000488 L56.4159798,99.0480656 C56.9286631,99.7647486 58.046631,100.811697 59.2373926,100.345259 C60.4281541,99.8788209 59.2373942,96.3214931 59.2373942,96.3214931 C57.988628,94.16972 52.6206013,80.6042015 52.6206013,80.6042015 Z" id="Combined-Shape" fill="#FFFFFF"></path>
            <path d="M102.664219,67.8865391 C99.7751184,66.3484892 94.7941271,62.3123383 90.6175028,56.1726648 C88.8110322,52.2054085 83.1554105,51.7285146 83.1554105,51.7285146 C81.6003605,51.4896203 78.6584709,51.1111473 74.1320051,52.6840919 C69.6126972,54.2615102 58.7130319,64.7997024 58.4571377,65.1951754 C57.6706653,66.389647 58.0026121,67.9912232 59.1908206,68.7839586 C59.6337146,69.0747476 60.1285032,69.2098526 60.6179234,69.2098526 C61.4625535,69.2098526 62.2901836,68.8018533 62.7903406,68.0502757 C62.84313,67.9804863 67.1360699,61.694971 75.1511086,58.852397 L72.8793757,72.622373 C72.7514286,73.4088453 63.2743924,99.2139057 63.2743924,99.2139057 C62.6274988,100.495167 63.1285506,102.062743 64.4107062,102.708742 C64.7891793,102.90111 65.1909154,102.987899 65.5926516,102.987899 C66.5303341,102.987899 67.4447536,102.475216 67.9055423,101.572428 L78.1046298,78.7844149 L85.2929331,102.44569 C85.6597745,103.534582 86.6735096,104.221739 87.757034,104.221739 C88.030823,104.221739 88.3037173,104.180581 88.5721379,104.092897 C89.9348197,103.638372 90.6756605,102.171006 90.2265034,100.807429 C90.2265034,100.807429 84.6925657,76.7676816 84.93146,75.4157366 L87.5181397,60.9407091 C91.8173428,67.8435918 99.7983815,72.2474789 100.217118,72.4684785 C100.607222,72.6724782 101.02059,72.7717938 101.440221,72.7717938 C102.366272,72.7717938 103.262797,72.2761104 103.729848,71.3965857 C104.405373,70.1403773 103.927585,68.5566959 102.664219,67.8865391 Z M83.2717261,38.5920112 C79.9746265,39.0402735 77.6572621,42.0761104 78.1055245,45.3669467 C78.5484185,48.6577831 81.5896237,50.9644107 84.8858285,50.5161483 C88.1650333,50.0732543 90.4716609,47.0383122 90.0296617,43.7412127 C89.5805046,40.4557448 86.5518256,38.1491172 83.2717261,38.5920112 Z" id="Combined-Shape" fill="#FFFFFF"></path>
        </g>
    </g>
</svg>