<?xml version="1.0" encoding="UTF-8" standalone="no"?>
<svg width="120px" height="120px" viewBox="0 0 120 120" version="1.1" xmlns="http://www.w3.org/2000/svg" xmlns:xlink="http://www.w3.org/1999/xlink">
    <!-- Generator: Sketch 3.8.1 (29687) - http://www.bohemiancoding.com/sketch -->
    <title>Artboard 38 Copy 2</title>
    <desc>Created with Sketch.</desc>
    <defs></defs>
    <g id="Page-1" stroke="none" stroke-width="1" fill="none" fill-rule="evenodd">
        <g id="Artboard-38-Copy-2">
            <path d="M60,119 C92.5848002,119 119,92.5848002 119,60 C119,27.4151998 92.5848002,1 60,1 C27.4151998,1 1,27.4151998 1,60 C1,92.5848002 27.4151998,119 60,119 Z" id="Oval-1-Copy-11" fill="#EE3224"></path>
            <path d="M46.6065259,76.3616368 L41.4549215,74.9812686 C41.2771911,74.9336459 41.1709063,74.7533265 41.2192192,74.5730203 C41.2658066,74.3991537 41.4497371,74.2896953 41.6274675,74.337318 L46.7790719,75.7176863 C46.9574462,75.7654815 47.0613616,75.9520679 47.0147742,76.1259346 C46.9664613,76.3062407 46.7849002,76.4094321 46.6065259,76.3616368 L46.6065259,76.3616368 L46.6065259,76.3616368 Z M38.8267751,77.3212832 L34.9930154,76.2940304 C34.0871528,76.0513052 33.5466211,75.1198881 33.7902268,74.2107393 L33.9369772,73.6630594 C34.1789686,72.7599351 35.1144056,72.2175456 36.0202682,72.4602707 L39.8540279,73.4875235 L38.8267751,77.3212832 L38.8267751,77.3212832 L38.8267751,77.3212832 Z M36.1770046,71.4965027 C34.7570936,71.1160387 33.2906195,71.9654295 32.9110183,73.3821208 L32.7384722,74.0260713 C32.3571455,75.449202 33.2041794,76.9115936 34.6240903,77.2920576 L44.9272991,80.0527941 C46.347854,80.4334307 47.8119587,79.5903068 48.1932855,78.167176 L48.3658315,77.5232255 C48.7454327,76.1065343 47.9007683,74.6378757 46.4802134,74.2572392 L36.1770046,71.4965027 L36.1770046,71.4965027 Z" id="Fill-4559" fill="#FFFFFF"></path>
            <g id="Fill-4075-+-Fill-4076-+-Fill-4077-Copy" transform="translate(41.500000, 45.000000) rotate(-15.000000) translate(-41.500000, -45.000000) translate(23.000000, 36.000000)">
                <path d="M35.016,17.5 L1.016,17.5 C0.464,17.5 0.016,17.062 0.016,16.5 L0.016,10.5 C0.016,9.962 0.464,9.5 1.016,9.5 L35.016,9.5 C35.57,9.5 36.016,9.962 36.016,10.5 L36.016,16.5 C36.016,17.062 35.57,17.5 35.016,17.5 L35.016,17.5 L35.016,17.5 Z M2.9317284,2.10281246 C2.65906258,1.61357085 2.82470677,0.995378316 3.29925144,0.731197782 C3.78193962,0.444352665 4.39240474,0.607926302 4.66507056,1.09716791 C5.39263267,2.34602874 4.58752033,3.89026905 3.87667254,5.25271223 C3.59142941,5.79951782 3.10965239,6.72433721 3.13570749,7.02119598 C3.41406732,7.48918722 3.23172997,8.06149579 2.75097365,8.34885854 C2.52524165,8.472653 2.26446889,8.48767179 2.02491928,8.42348467 C1.75832375,8.35205061 1.51567828,8.18350633 1.368979,7.93507259 C0.770008792,6.88631205 1.41564414,5.65133391 2.10313385,4.32197245 C2.40024549,3.76178259 3.10916143,2.39882178 2.9317284,2.10281246 L2.9317284,2.10281246 L2.9317284,2.10281246 Z M6.9317284,2.10281246 C6.65906258,1.61357085 6.82470677,0.995378316 7.29925144,0.731197782 C7.78193962,0.444352665 8.39240474,0.607926302 8.66507056,1.09716791 C9.39263267,2.34602874 8.58752033,3.89026905 7.87667254,5.25271223 C7.59142941,5.79951782 7.10965239,6.72433721 7.13570749,7.02119598 C7.41406732,7.48918722 7.23172997,8.06149579 6.75097365,8.34885854 C6.52524165,8.472653 6.26446889,8.48767179 6.02491928,8.42348467 C5.75832375,8.35205061 5.51567828,8.18350633 5.368979,7.93507259 C4.77000879,6.88631205 5.41564414,5.65133391 6.10313385,4.32197245 C6.40024549,3.76178259 7.10916143,2.39882178 6.9317284,2.10281246 L6.9317284,2.10281246 L6.9317284,2.10281246 Z" id="Fill-4076" fill="#FFFFFF"></path>
                <polygon id="Fill-4077" fill="#EE3224" points="2.016 11.5 26.016 11.5 26.016 15.5 2.016 15.5"></polygon>
                <polygon id="Fill-4075" fill="#FFFFFF" points="28.016 11.5 34.016 11.5 34.016 15.5 28.016 15.5"></polygon>
            </g>
            <path d="M89.4125,87.35 L72.12,87.35 C71.4325,87.35 70.8725,86.8 70.87,86.125 L70.78,53 C70.775,51.525 71.3725,50.0525 72.42,49.025 C73.47,47.975 74.92,47.35 76.4,47.35 L77.0175,47.35 L77.0175,34.85 L75.7675,34.85 C75.075,34.85 74.5175,34.3 74.5175,33.6 L74.5175,28.6 C74.5175,27.925 75.075,27.35 75.7675,27.35 L85.7675,27.35 C86.4575,27.35 87.0175,27.925 87.0175,28.6 L87.0175,33.6 C87.0175,34.3 86.4575,34.85 85.7675,34.85 L84.5175,34.85 L84.5175,47.35 L85.135,47.35 C86.615,47.35 88.065,47.975 89.1125,49.025 C90.1625,50.0525 90.76,51.525 90.755,53 L90.6625,86.125 C90.66,86.8 90.1025,87.35 89.4125,87.35" id="Fill-4039" fill="#FFFFFF"></path>
            <path d="M56.5506614,81.2506853 L51.9318592,83.917352 C51.7725105,84.009352 51.5698507,83.9570016 51.4765174,83.7953435 C51.3865174,83.639459 51.4391772,83.4320017 51.5985259,83.3400017 L56.217328,80.6733351 C56.3772541,80.5810017 56.5826698,80.639459 56.6726698,80.7953435 C56.7660032,80.9570016 56.7105874,81.158352 56.5506614,81.2506853 L56.5506614,81.2506853 L56.5506614,81.2506853 Z M51.7281193,87.4303723 L48.2908644,89.4148723 C47.4786902,89.8837813 46.4378652,89.6073836 45.9672552,88.7922631 L45.6837552,88.3012267 C45.2162637,87.4915077 45.4941902,86.4465265 46.3063644,85.9776175 L49.7436193,83.9931174 L51.7281193,87.4303723 L51.7281193,87.4303723 L51.7281193,87.4303723 Z M45.7357068,85.1853012 C44.4626495,85.9203012 44.0263057,87.557865 44.7596391,88.8280356 L45.0929724,89.4053859 C45.8296391,90.68133 47.4626495,91.1164536 48.7357068,90.3814536 L57.9733111,85.0481203 C59.2469458,84.312787 59.6860455,82.68133 58.9493788,81.4053859 L58.6160455,80.8280356 C57.8827122,79.557865 56.2469458,79.1166345 54.9733111,79.8519679 L45.7357068,85.1853012 L45.7357068,85.1853012 Z" id="Fill-4559" fill="#FFFFFF"></path>
        </g>
    </g>
</svg>