<?xml version="1.0" encoding="UTF-8" standalone="no"?>
<svg width="120px" height="120px" viewBox="0 0 120 120" version="1.1" xmlns="http://www.w3.org/2000/svg" xmlns:xlink="http://www.w3.org/1999/xlink">
    <!-- Generator: Sketch 3.8.1 (29687) - http://www.bohemiancoding.com/sketch -->
    <title>Artboard 38</title>
    <desc>Created with Sketch.</desc>
    <defs></defs>
    <g id="Page-1" stroke="none" stroke-width="1" fill="none" fill-rule="evenodd">
        <g id="Artboard-38" fill="#EE3224">
            <path d="M60,119 C92.5848002,119 119,92.5848002 119,60 C119,27.4151998 92.5848002,1 60,1 C27.4151998,1 1,27.4151998 1,60 C1,92.5848002 27.4151998,119 60,119 Z" id="Oval-8-Copy-2"></path>
        </g>
        <path d="M57.3148713,82.7160151 C57.3148713,79.9543656 55.7787139,76.0860808 53.8852769,74.0775601 L39.3728875,58.6831031 C38.2362766,57.4774085 36.066058,56.9995253 34.5297793,57.6140368 C33.3538813,58.084396 32.9127377,59.4439995 33.6533297,60.6133553 L40.476413,71.3866447 C41.2156231,72.5538186 41.0694601,72.663685 40.150933,71.6331424 L33.2288096,63.8668576 C32.3098419,62.8358206 31.1947613,60.944501 30.7371888,59.6395721 L25.7252064,45.3461407 C25.2224422,43.9123318 23.5996739,42.5540004 22.0988542,42.3119327 C19.2746294,41.8564126 17.6799356,43.652725 18.4391229,46.3098804 L25.8589045,72.2791159 C25.9726568,72.6772492 26.3021368,73.2410923 26.5894657,73.5330556 L41.5648713,88.75 L41.5648713,105 L57.3148713,105 L57.3148713,82.7160151 Z" id="Path-9-Copy-2" fill="#FFFFFF"></path>
        <path d="M63.25,82.7160151 C63.25,79.9543656 64.7861574,76.0860808 66.6795944,74.0775601 L81.1919838,58.6831031 C82.3285948,57.4774085 84.4988133,56.9995253 86.0350921,57.6140368 C87.2109901,58.084396 87.6521336,59.4439995 86.9115416,60.6133553 L80.0884584,71.3866447 C79.3492482,72.5538186 79.4954112,72.663685 80.4139383,71.6331424 L87.3360617,63.8668576 C88.2550294,62.8358206 89.3701101,60.944501 89.8276825,59.6395721 L94.839665,45.3461407 C95.3424291,43.9123318 96.9651975,42.5540004 98.4660171,42.3119327 C101.290242,41.8564126 102.884936,43.652725 102.125748,46.3098804 L94.7059669,72.2791159 C94.5922145,72.6772492 94.2627345,73.2410923 93.9754056,73.5330556 L79,88.75 L79,105 L63.25,105 L63.25,82.7160151 L63.25,82.7160151 Z" id="Path-9-Copy-4" fill="#FFFFFF"></path>
        <path d="M69.6206736,21.792437 C67.4161896,21.792437 65.633085,23.5723936 65.633085,25.7683331 C65.633085,27.9701188 67.4161896,29.7500755 69.6206736,29.7500755 C71.8139148,29.7500755 73.5970194,27.9701188 73.5970194,25.7683331 C73.5970194,23.5723936 71.8139148,21.792437 69.6206736,21.792437 Z M75.6544479,43.991078 L73.7989397,36.244354 L73.5439535,44.4772157 L74.2756335,58.0913209 C74.3224035,58.9111443 73.7107963,59.6194393 72.8941209,59.6779018 C72.0095391,59.6841977 71.3507123,59.0869814 71.3070903,58.3022354 L69.6116794,45.4553374 L67.9315586,58.3022354 C67.8699481,59.0869814 67.2169676,59.6841977 66.4412159,59.6841977 C65.5188583,59.6194393 64.9014049,58.9111443 64.9544709,58.0913209 L65.6803046,44.4772157 L65.4307149,36.244354 C65.4307149,36.244354 60.4856913,41.2276031 60.1780889,41.3620667 C59.6397847,41.59052 59.0187336,41.338232 58.7875821,40.7999278 L54.7703125,32.0575433 L57.8153066,46.8256073 L54.8764443,46.8256073 L53.9684775,58.911594 C53.9684775,59.4912717 53.491334,59.9711134 52.9143546,59.9711134 C52.3171383,59.9711134 51.8485393,59.4912717 51.8485393,58.911594 L50.9437205,46.8256073 L50.4108128,46.8256073 L49.8752068,46.8256073 L48.970388,58.911594 C48.970388,59.4912717 48.4990907,59.9711134 47.9045726,59.9711134 C47.324895,59.9711134 46.8504497,59.4912717 46.8504497,58.911594 L45.9397847,46.8256073 L43.0040704,46.8256073 L46.0459165,32.0575433 L42.0317949,40.7999278 C41.8033416,41.338232 41.176894,41.59052 40.6381401,41.3620667 C40.1052324,41.1336134 39.8533942,40.5125624 40.0876937,39.9679622 C40.0876937,39.9679622 42.473861,31.2903361 43.5774521,29.0296383 C44.6783449,26.7720884 45.7792378,25.3991203 49.9777409,25.3991203 L50.4108128,25.3991203 L50.8411863,25.3991203 C55.0369912,25.3991203 56.1405823,26.7720884 57.2414752,29.0296383 C58.0496061,30.6809775 59.5309546,35.7460741 60.2747768,38.3579963 C61.3437402,36.8995831 62.7931591,34.8444032 63.3463038,33.6967404 C64.2772059,31.7877166 65.7176306,30.6400538 69.2546087,30.6400538 L69.975046,30.6400538 C73.5147223,30.6400538 74.9466025,31.7877166 75.8833508,33.6967404 C76.8142529,35.5940717 77.2976924,43.2940257 77.2976924,43.2940257 C77.4937664,43.7567785 77.2770056,44.2721475 76.8227974,44.4655232 C76.3721868,44.658899 75.8478237,44.4367417 75.6544479,43.991078 Z M57.1776162,22.3896534 C57.1776162,23.5314699 56.2116367,24.4569754 55.010908,24.4569754 C54.1735458,24.4569754 53.471097,23.9915244 53.1108784,23.3268514 C52.291055,24.0005186 51.2868501,24.4569754 50.1450335,24.4569754 C48.9973707,24.4569754 47.995864,24.0000689 47.1760406,23.3268514 C46.815822,23.9915244 46.1102252,24.4569754 45.276011,24.4569754 C44.075732,24.4569754 43.1093028,23.5314699 43.1093028,22.3896534 C43.1093028,21.2509848 44.0752823,20.322781 45.276011,20.322781 C45.3668527,20.322781 45.4487001,20.3637047 45.5395418,20.3753972 C45.5071626,20.1559382 45.4077764,19.9598641 45.4077764,19.7282629 C45.4077764,17.1167903 47.527265,15 50.1450335,15 C52.759654,15 54.8764443,17.1167903 54.8764443,19.7282629 C54.8764443,19.9598641 54.7797564,20.1559382 54.7473772,20.3753972 C54.8350709,20.3637047 54.9169183,20.322781 55.010908,20.322781 C56.211187,20.322781 57.1776162,21.2509848 57.1776162,22.3896534 Z" id="Combined-Shape" fill="#FFFFFF"></path>
    </g>
</svg>