<?xml version="1.0" encoding="UTF-8" standalone="no"?>
<svg width="120px" height="120px" viewBox="0 0 120 120" version="1.1" xmlns="http://www.w3.org/2000/svg" xmlns:xlink="http://www.w3.org/1999/xlink">
    <!-- Generator: Sketch 3.8.1 (29687) - http://www.bohemiancoding.com/sketch -->
    <title>Artboard 38 Copy 3</title>
    <desc>Created with Sketch.</desc>
    <defs></defs>
    <g id="Page-1" stroke="none" stroke-width="1" fill="none" fill-rule="evenodd">
        <g id="Artboard-38-Copy-3">
            <path d="M60,119 C92.5848002,119 119,92.5848002 119,60 C119,27.4151998 92.5848002,1 60,1 C27.4151998,1 1,27.4151998 1,60 C1,92.5848002 27.4151998,119 60,119 Z" id="Oval-8-Copy-2" fill="#EE3224"></path>
            <path d="M57.3148713,82.7160151 C57.3148713,79.9543656 55.7787139,76.0860808 53.8852769,74.0775601 L39.3728875,58.6831031 C38.2362766,57.4774085 36.066058,56.9995253 34.5297793,57.6140368 C33.3538813,58.084396 32.9127377,59.4439995 33.6533297,60.6133553 L40.476413,71.3866447 C41.2156231,72.5538186 41.0694601,72.663685 40.150933,71.6331424 L33.2288096,63.8668576 C32.3098419,62.8358206 31.1947613,60.944501 30.7371888,59.6395721 L25.7252064,45.3461407 C25.2224422,43.9123318 23.5996739,42.5540004 22.0988542,42.3119327 C19.2746294,41.8564126 17.6799356,43.652725 18.4391229,46.3098804 L25.8589045,72.2791159 C25.9726568,72.6772492 26.3021368,73.2410923 26.5894657,73.5330556 L41.5648713,88.75 L41.5648713,105 L57.3148713,105 L57.3148713,82.7160151 Z" id="Path-9-Copy-2" fill="#FFFFFF"></path>
            <path d="M63.25,82.7160151 C63.25,79.9543656 64.7861574,76.0860808 66.6795944,74.0775601 L81.1919838,58.6831031 C82.3285948,57.4774085 84.4988133,56.9995253 86.0350921,57.6140368 C87.2109901,58.084396 87.6521336,59.4439995 86.9115416,60.6133553 L80.0884584,71.3866447 C79.3492482,72.5538186 79.4954112,72.663685 80.4139383,71.6331424 L87.3360617,63.8668576 C88.2550294,62.8358206 89.3701101,60.944501 89.8276825,59.6395721 L94.839665,45.3461407 C95.3424291,43.9123318 96.9651975,42.5540004 98.4660171,42.3119327 C101.290242,41.8564126 102.884936,43.652725 102.125748,46.3098804 L94.7059669,72.2791159 C94.5922145,72.6772492 94.2627345,73.2410923 93.9754056,73.5330556 L79,88.75 L79,105 L63.25,105 L63.25,82.7160151 L63.25,82.7160151 Z" id="Path-9-Copy-4" fill="#FFFFFF"></path>
            <path d="M44.9032258,35.9677419 L48.7741935,35.9677419 L48.7741935,37.9354839 L44.9032258,37.9354839 L44.9032258,35.9677419 L44.9032258,35.9677419 L44.9032258,35.9677419 Z M44.4193548,35 C44.1522581,35 43.9354839,35.2225806 43.9354839,35.483871 L43.9354839,37.9354839 L37.9936857,37.9354839 C37.4448883,37.9354839 37,38.386263 37,38.9317291 L37,50.4876257 C37,51.0378368 37.4479619,51.483871 38.0028587,51.483871 L55.6745606,51.483871 C56.2284242,51.483871 56.6774194,51.0330919 56.6774194,50.4876257 L56.6774194,38.9317291 C56.6774194,38.3815181 56.2223629,37.9354839 55.6837336,37.9354839 L49.7419355,37.9354839 L49.7419355,35.483871 C49.7419355,35.2225806 49.526129,35 49.2580645,35 L44.4193548,35 Z" id="Fill-5117" fill="#FFFFFF"></path>
            <path d="M69.32075,26.13 C66.97925,26.13 65,28.23175 65,30.69925 L65,42.125 C65,42.37175 65.09275,42.58 65.2555,42.755 L66.75,44.2425 L66.7694356,55.0580424 C66.7694356,55.5497924 67.1614356,55.9330424 67.6444356,55.9330424 L76.3944356,55.9330424 C76.8791856,55.9330424 77.2694356,55.5497924 77.2694356,55.0580424 L77.25,44.2425 L78.74275,42.755 C78.90725,42.58 79,42.37175 79,42.125 L79,30.69925 C79,28.23175 77.0225,26.13 74.67925,26.13 L69.32075,26.13 Z M72,25.5 C74.8945,25.5 77.25,23.155 77.25,20.25 C77.25,17.3625 74.8945,15 72,15 C69.1055,15 66.75,17.3625 66.75,20.25 C66.75,23.155 69.1055,25.5 72,25.5 Z" id="Combined-Shape" fill="#FFFFFF"></path>
        </g>
    </g>
</svg>